<?xml version="1.0" standalone="no"?>
<!DOCTYPE svg PUBLIC "-//W3C//DTD SVG 20010904//EN"
 "http://www.w3.org/TR/2001/REC-SVG-20010904/DTD/svg10.dtd">
<svg version="1.0" xmlns="http://www.w3.org/2000/svg"
 width="500.000000pt" height="500.000000pt" viewBox="0 0 500.000000 500.000000"
 preserveAspectRatio="xMidYMid meet">
<metadata>
Created by potrace 1.16, written by Peter Selinger 2001-2019
</metadata>
<g transform="translate(0.000000,500.000000) scale(0.100000,-0.100000)"
fill="#000000" stroke="none">
<path d="M735 3529 c-189 -6 -211 -10 -311 -66 -138 -77 -245 -240 -290 -439
-25 -115 -16 -324 19 -422 32 -90 84 -183 90 -162 34 113 88 185 148 197 16 3
29 11 29 17 0 6 17 -20 38 -59 23 -44 68 -102 120 -157 l84 -87 -23 -45 c-12
-25 -35 -59 -51 -75 l-28 -29 22 -7 c13 -4 166 -9 341 -12 l317 -5 0 176 0
176 -307 0 c-303 0 -309 1 -358 24 -64 30 -107 76 -142 151 -25 54 -28 71 -28
160 1 140 41 225 135 285 62 40 148 50 440 51 118 0 224 4 235 9 12 5 -26 8
-97 6 -113 -3 -119 -2 -133 20 -8 13 -15 26 -15 30 0 3 29 4 65 1 37 -2 65 0
65 5 0 5 9 6 21 3 41 -13 203 -3 266 16 18 6 45 10 60 9 45 -3 49 -1 24 16
-21 15 -21 18 -7 26 22 13 20 38 -3 38 -27 0 -35 17 -11 23 34 9 22 27 -17 28
-21 1 -51 4 -67 8 -35 7 -47 31 -17 31 12 0 21 4 21 9 0 13 -35 20 -51 10 -7
-4 -21 -3 -32 3 -10 5 -39 10 -63 10 -29 0 -47 5 -52 15 -10 17 -149 21 -437
12z"/>
<path d="M1905 2601 c-98 -45 -132 -146 -82 -241 52 -98 183 -119 282 -45 19
15 19 16 -6 40 l-25 26 -40 -22 c-73 -40 -144 2 -144 86 0 84 71 126 144 86
l39 -21 24 22 c13 12 23 25 23 30 0 15 -103 58 -140 58 -19 0 -53 -9 -75 -19z"/>
<path d="M2170 2445 l0 -175 40 0 39 0 3 68 3 67 73 3 72 3 0 -71 0 -70 40 0
40 0 0 175 0 175 -40 0 -40 0 0 -75 0 -75 -75 0 -75 0 0 75 0 75 -40 0 -40 0
0 -175z"/>
<path d="M2659 2611 c-77 -25 -122 -86 -122 -165 0 -80 33 -130 106 -161 66
-28 159 -13 210 33 79 71 63 215 -28 272 -38 24 -125 34 -166 21z m131 -96
c19 -20 25 -36 25 -71 0 -39 -5 -50 -33 -75 -20 -18 -43 -29 -62 -29 -19 0
-42 11 -62 29 -28 25 -33 36 -33 74 0 95 99 138 165 72z"/>
<path d="M2984 2497 c57 -107 66 -131 66 -176 l0 -51 40 0 40 0 0 55 c0 48 7
68 60 164 33 61 60 115 60 121 0 5 -17 10 -38 10 -38 0 -39 -2 -78 -75 -21
-41 -41 -75 -44 -75 -3 0 -23 33 -45 73 -39 71 -41 72 -83 75 l-44 3 66 -124z"/>
<path d="M3402 2603 c-13 -25 -142 -323 -142 -328 0 -3 19 -5 43 -5 40 0 44 2
56 35 l12 35 75 0 75 0 15 -35 c13 -33 17 -35 59 -35 l45 0 -17 43 c-9 23 -42
101 -73 172 l-56 130 -41 3 c-32 2 -44 -1 -51 -15z"/>
<path d="M3680 2445 l0 -175 40 0 40 0 0 43 c0 33 6 49 23 65 13 12 26 22 29
22 3 0 25 -29 48 -65 l42 -65 49 0 c27 0 49 2 49 5 0 3 -30 48 -66 100 l-66
95 40 48 c22 26 49 56 61 66 31 28 26 36 -23 36 -42 0 -47 -3 -115 -77 l-71
-78 0 78 0 77 -40 0 -40 0 0 -175z"/>
<path d="M4149 2611 c-77 -25 -122 -86 -122 -165 0 -80 33 -130 106 -161 66
-28 159 -13 210 33 79 71 63 215 -28 272 -38 24 -125 34 -166 21z m131 -96
c19 -20 25 -36 25 -71 0 -39 -5 -50 -33 -75 -20 -18 -43 -29 -62 -29 -19 0
-42 11 -62 29 -28 25 -33 36 -33 74 0 95 99 138 165 72z"/>
<path d="M4505 2606 c-39 -17 -55 -37 -62 -78 -7 -49 26 -83 107 -112 56 -19
65 -25 65 -46 0 -21 -5 -25 -35 -28 -22 -2 -52 6 -82 21 l-46 23 -16 -33 -16
-34 52 -24 c121 -56 238 -17 238 78 0 54 -13 67 -105 104 -54 22 -70 33 -70
48 0 27 50 32 100 11 49 -21 50 -20 63 9 18 39 16 42 -35 59 -56 19 -117 20
-158 2z"/>
</g>
</svg>
